<svg width="128" height="128" viewBox="0 0 128 128" fill="none" xmlns="http://www.w3.org/2000/svg">
  <rect width="128" height="128" rx="24" fill="#1E1E1E" />
  <g clip-path="url(#clip0_13_23)" filter="url(#filter0_d_13_23)">
    <path fill-rule="evenodd" clip-rule="evenodd"
      d="M64 28.9C64 23.4324 59.5676 19 54.1 19H28.9C23.4324 19 19 23.4324 19 28.9V54.4237C19 59.8914 23.4324 64.3235 28.9 64.3235H54.1C59.5676 64.3235 64 68.756 64 74.2235V99.1C64 104.567 68.4325 109 73.9 109H99.1C104.567 109 109 104.567 109 99.1V73.576C109 68.1085 104.567 63.6762 99.1 63.6762H73.9C68.4325 63.6762 64 59.2439 64 53.7762V28.9Z"
      fill="#FFBE3B" />
  </g>
  <defs>
    <filter id="filter0_d_13_23" x="15" y="19" width="98" height="98" filterUnits="userSpaceOnUse"
      color-interpolation-filters="sRGB">
      <feFlood flood-opacity="0" result="BackgroundImageFix" />
      <feColorMatrix in="SourceAlpha" type="matrix" values="0 0 0 0 0 0 0 0 0 0 0 0 0 0 0 0 0 0 127 0"
        result="hardAlpha" />
      <feOffset dy="4" />
      <feGaussianBlur stdDeviation="2" />
      <feComposite in2="hardAlpha" operator="out" />
      <feColorMatrix type="matrix" values="0 0 0 0 0 0 0 0 0 0 0 0 0 0 0 0 0 0 0.25 0" />
      <feBlend mode="normal" in2="BackgroundImageFix" result="effect1_dropShadow_13_23" />
      <feBlend mode="normal" in="SourceGraphic" in2="effect1_dropShadow_13_23" result="shape" />
    </filter>
  </defs>
</svg>